<svg xml:space="preserve" style="max-height: 500px" viewBox="60.68221889055473 0 677.6611694152923 526.8" y="0px" x="0px" xmlns:xlink="http://www.w3.org/1999/xlink" xmlns="http://www.w3.org/2000/svg" id="Layer_1" version="1.1" width="677.6611694152923" height="526.8">
<style type="text/css">
	.st0{fill:#BE1E2D;}
	.st1{fill:#726658;}
	.st2{fill:#939598;}
</style>
<polygon points="132.3,402.6 236.6,315.4 343.3,335.5 508.8,262.8 659.3,411.5 643.8,411.5 508.8,284.4 349.5,391.1 &#10;&#9;236.2,335.1" class="st0"/>
<path d="M367.9,284.9h11.2v7.5h-11.2V284.9z M367.9,260.1h11.2v7.5h-11.2V260.1z M367.9,235.4h11.2v7.5h-11.2V235.4z&#10;&#9; M367.9,210.7h11.2v7.5h-11.2V210.7z M367.9,186.8h11.2v7.5h-11.2V186.8z M367.9,162.1h11.2v7.5h-11.2V162.1z M390,300.4V147.1&#10;&#9;l-76.7-48v217.2l28.4,5.4L390,300.4z M500.6,165.2h47.2v5.5h-47.2V165.2z M500.6,146.4h47.2v5.5h-47.2V146.4z M500.6,127.5h47.2v5.5&#10;&#9;h-47.2V127.5z M558.8,293.6V67.9l-69.1,48v140.7l21.9-9.6L558.8,293.6z M465.7,246.7l-5.9,2.4V49.6l5.9-2.4V246.7z M449.4,253.2&#10;&#9;l-5.9,2.4V56.1l5.9-2.4V253.2z M478.3,15.1l-76.7,30.7v249.6l76.7-33.7V15.1z M265.1,174.6h23.7v7.5h-23.7V174.6z M265.1,149.9h23.7&#10;&#9;v7.5h-23.7V149.9z M265.1,125.2h23.7v7.5h-23.7V125.2z M265.1,100.5h23.7v7.5h-23.7V100.5z M299.9,313.8V13.2l-67.1,90.2v198&#10;&#9;l0.2-0.1L299.9,313.8z M399.9,410.2c-139.2,0-260.3,15.2-322.6,37.7c82.8-14.7,196.8-23.9,322.6-23.9s239.8,9.1,322.6,23.9&#10;&#9;C660.3,425.5,539.1,410.2,399.9,410.2z" class="st1"/>
<path d="M510.8,397.1h21.7v-30.1h-21.7V397.1z M482.6,355.2v5.2h21.7v-29.9C492.1,332.1,482.6,342.5,482.6,355.2z&#10;&#9; M510.8,330.5v29.9h21.7v-5.2C532.5,342.5,523,332.1,510.8,330.5z M482.6,397.1h21.7v-30.1h-21.7V397.1z M217,403.9h14.9v-20.7H217&#10;&#9;V403.9z M217,375.1v3.6h14.9v-20.5C223.5,359.3,217,366.4,217,375.1z M236.3,403.9h14.9v-20.7h-14.9V403.9z M236.3,358.2v20.5h14.9&#10;&#9;v-3.6C251.2,366.4,244.8,359.3,236.3,358.2z" class="st2"/>
<path d="M149.9,478.5c0-8.4,0-9.9,0.1-11.6c0.1-1.9,0.4-2.7,2.1-3c0.6-0.1,1.5-0.1,1.8-0.1c0.2,0,0.4-0.2,0.4-0.4&#10;&#9;c0-0.3-0.3-0.4-0.9-0.4c-1.7,0-5.9,0.1-6.2,0.1c-0.3,0-3.8-0.1-6.3-0.1c-0.6,0-0.9,0.1-0.9,0.4c0,0.2,0.3,0.4,0.4,0.4&#10;&#9;c0.5,0,1.5,0.1,1.9,0.1c1.8,0.3,2.2,1.1,2.3,3c0.1,1.7,0.1,3.2,0.1,11.6v9.5c0,5.2,0,9.4-0.3,11.7c-0.3,1.6-0.4,2.6-1.5,2.9&#10;&#9;c-0.5,0.1-1.2,0.3-1.7,0.3c-0.3,0-0.4,0.3-0.4,0.4c0,0.3,0.3,0.4,0.9,0.4c0.9,0,2.1-0.1,3.2-0.1c1.1-0.1,2-0.1,2.3-0.1&#10;&#9;c1.6,0,3.6,0.1,6.1,0.1c2.6,0.1,5.7,0.2,9.7,0.2c3,0,3.2-0.2,3.6-1.5c0.4-1.6,0.8-4.8,0.8-5.4c0-0.6-0.1-0.8-0.4-0.8&#10;&#9;c-0.3,0-0.5,0.3-0.6,0.7c-0.2,1.1-0.6,2.2-1.3,3c-1.3,1.6-3.8,1.6-6.7,1.6c-4.4,0-6.5-0.4-7.4-1.3c-1-1-1.1-4.2-1.1-12.1V478.5" class="st0"/>
<path d="M175.6,486.4c0,7.9,2.2,11.6,4.9,14.1c3.9,3.7,9.8,3.8,11.6,3.8c3.3,0,7.6-0.4,11.7-3.9&#10;&#9;c4.4-3.8,5.2-10.3,5.2-16.2v-5.8c0-8.4-0.1-9.9,0.1-11.6c0.1-1.8,0.4-2.7,2-3c0.7-0.1,1-0.1,1.4-0.1c0.3,0,0.4-0.3,0.4-0.4&#10;&#9;c0-0.3-0.3-0.4-0.9-0.4c-1.6,0-4.3,0.1-4.7,0.1c-0.3,0-3.6-0.1-6-0.1c-0.6,0-0.9,0.1-0.9,0.4c0,0.2,0.2,0.4,0.4,0.4&#10;&#9;c0.5,0,1.5,0.1,1.9,0.1c1.8,0.3,2.2,1.3,2.2,3c0.1,1.7,0.1,3.2,0.1,11.6v6.8c0,5.5-0.6,10-3.2,13.1c-1.9,2.3-5.2,3.8-8.6,3.8&#10;&#9;c-3.2,0-5.6-0.4-8.3-2.9c-2.4-2.2-4.1-5.4-4.1-13.2v-7.5c0-8.4,0-9.9,0.1-11.6c0.1-1.8,0.4-2.7,1.9-3c0.7-0.1,1-0.1,1.4-0.1&#10;&#9;c0.3,0,0.5-0.3,0.5-0.4c0-0.3-0.3-0.4-1-0.4c-1.6,0-5.1,0.1-5.6,0.1c-0.5,0-3.9-0.1-6.4-0.1c-0.6,0-0.9,0.1-0.9,0.4&#10;&#9;c0,0.2,0.3,0.4,0.4,0.4c0.5,0,1.5,0.1,1.9,0.1c1.8,0.3,2.2,1.3,2.3,3c0.1,1.7,0.1,3.2,0.1,11.6V486.4" class="st0"/>
<path d="M226.6,470.9c1.7,1.9,8,8.5,14.5,15.3c5.9,6.2,13.9,14.1,14.5,14.6c3.1,2.9,3.7,3.3,4.2,3.3&#10;&#9;c0.4,0,0.4-0.3,0.4-3.9l0.1-31.6c0-3.2,0.1-4.3,2-4.7c0.6-0.1,1.1-0.1,1.3-0.1c0.4,0,0.6-0.3,0.6-0.5c0-0.3-0.4-0.4-1-0.4&#10;&#9;c-2.3,0-4.1,0.1-4.8,0.1c-0.6,0-3.3-0.1-5.8-0.1c-0.6,0-1.1,0.1-1.1,0.4c0,0.2,0.1,0.5,0.4,0.5c0.4,0,1.7,0.1,2.7,0.3&#10;&#9;c1.7,0.3,2,1.5,2.1,5l0.6,27c-1.7-1.8-7.7-8.2-13.2-13.9c-8.6-8.9-16.7-17.5-17.6-18.4c-0.6-0.6-1.5-1.6-2.2-1.6&#10;&#9;c-0.4,0-0.8,0.6-0.8,2.7v30.9c0,4.9-0.2,6.3-1.6,6.7c-0.8,0.3-1.8,0.3-2.3,0.3c-0.3,0-0.4,0.2-0.4,0.4c0,0.4,0.3,0.4,0.9,0.4&#10;&#9;c2.5,0,4.9-0.2,5.4-0.2c0.5,0,2.7,0.2,5.9,0.2c0.6,0,1-0.1,1-0.4c0-0.3-0.2-0.4-0.4-0.4c-0.5,0-1.8-0.1-2.8-0.3&#10;&#9;c-1.5-0.4-2-1.7-2.2-6.2L226.6,470.9" class="st0"/>
<path d="M281.2,486.4c-0.2,0-0.3-0.1-0.2-0.4l5.2-14.8c0.3-0.8,0.6-0.8,1,0l5.5,14.8c0.1,0.3,0.1,0.4-0.2,0.4H281.2&#10;&#9; M273.2,497.7c-1.1,2.7-2.2,4.6-4.7,4.9c-0.4,0.1-1.3,0.1-1.6,0.1c-0.3,0-0.5,0.2-0.5,0.4c0,0.3,0.4,0.4,1.1,0.4&#10;&#9;c2.3,0,5.1-0.2,5.6-0.2c0.6,0,3.7,0.2,5,0.2c0.5,0,0.8-0.1,0.8-0.4c0-0.3-0.1-0.4-0.6-0.4h-0.5c-1,0-1.9-0.4-1.9-1.5&#10;&#9;c0-1,0.3-2.3,0.8-3.6l3.2-8.6c0.1-0.3,0.3-0.4,0.6-0.4h12.9c0.3,0,0.4,0.1,0.5,0.3l5,12.4c0.4,0.9-0.2,1.3-0.5,1.5&#10;&#9;c-0.3,0.1-0.4,0.1-0.4,0.4c0,0.3,0.9,0.3,2,0.4c3.9,0.1,8,0.1,8.8,0.1c0.6,0,1.3-0.1,1.3-0.4c0-0.3-0.4-0.4-0.7-0.4&#10;&#9;c-0.6,0-1.4-0.1-2.2-0.3c-1.2-0.4-2.7-1.1-4.8-5.9c-3.4-8.2-12.4-30.4-13.4-32.7c-0.6-1.2-0.8-2-1.3-2c-0.4,0-0.6,0.3-1.3,2.1&#10;&#9;L273.2,497.7" class="st0"/>
<path d="M322.1,465.8c0-0.3,0.2-0.5,0.4-0.6c0.6-0.1,2.3-0.3,4-0.3c6,0,9.6,3.9,9.6,10.6c0,4.1-1.5,7-3.4,8.2&#10;&#9;c-1.3,0.9-2.9,1-4.2,1c-2.5,0-5.3-0.4-6.2-0.8c-0.3-0.2-0.4-0.4-0.4-0.7V465.8 M317.3,488c0,5.2,0,9.4-0.3,11.7&#10;&#9;c-0.3,1.6-0.4,2.6-1.5,2.9c-0.5,0.1-1.2,0.3-1.7,0.3c-0.3,0-0.4,0.3-0.4,0.4c0,0.3,0.3,0.4,0.9,0.4c1.7,0,5.5-0.2,5.5-0.2&#10;&#9;c0.3,0,3.8,0.2,6.8,0.2c0.6,0,0.9-0.2,0.9-0.4c0-0.2-0.1-0.4-0.4-0.4c-0.5,0-1.7-0.1-2.5-0.3c-1.7-0.3-2-1.3-2.2-2.9&#10;&#9;c-0.3-2.2-0.3-6.4-0.3-11.6v-1.3c0-0.3,0.1-0.4,0.4-0.4l7.1,0.1c0.4,0,0.5,0.1,0.8,0.3c1.2,1.5,3.7,4.9,6,7.9&#10;&#9;c3.2,4.1,5.2,6.7,7.6,7.9c1.4,0.8,2.8,1.1,6,1.1h3.5c1,0,1.3-0.1,1.3-0.4c0-0.2-0.2-0.4-0.5-0.4s-0.9,0-2-0.2&#10;&#9;c-1.4-0.2-3.2-0.7-6.2-3.7c-3.2-3.4-7.1-8.2-11.7-13.9c5.2-4.4,6.8-8.3,6.8-12.3c0-3.7-2.5-6.3-3.9-7.4c-2.9-2-6.8-2.3-10.4-2.3&#10;&#9;c-1.7,0-6.4,0.1-7,0.1c-0.3,0-4.1-0.1-6.6-0.1c-0.6,0-0.9,0.1-0.9,0.4c0,0.2,0.3,0.4,0.4,0.4c0.5,0,1.5,0.1,1.9,0.1&#10;&#9;c1.8,0.3,2.2,1.1,2.3,3c0.1,1.7,0.1,3.2,0.1,11.6V488" class="st0"/>
<path d="M380.5,488c0,5.2,0,9.4-0.3,11.7c-0.3,1.6-0.4,2.6-1.5,2.9c-0.5,0.1-1.2,0.3-1.7,0.3c-0.3,0-0.4,0.3-0.4,0.4&#10;&#9;c0,0.3,0.3,0.4,0.9,0.4c1.7,0,5.3-0.2,5.5-0.2c0.3,0,3.9,0.2,7,0.2c0.6,0,0.9-0.2,0.9-0.4c0-0.2-0.1-0.4-0.4-0.4&#10;&#9;c-0.5,0-1.7-0.1-2.5-0.3c-1.7-0.3-2-1.3-2.2-2.9c-0.3-2.2-0.3-6.5-0.3-11.7v-21.9c0-0.6,0.1-1,0.4-1c0.6-0.1,2.2-0.4,3.1-0.4&#10;&#9;c1.3,0,4.6-0.3,7.5,2.6c3,2.9,3.2,6.4,3.2,8.2c0,4.9-4.3,8.7-10.3,8.7c-1.1,0-1.5,0.1-1.5,0.6c0,0.3,0.3,0.5,0.6,0.5&#10;&#9;c0.3,0.1,1.3,0.1,1.6,0.1c8.6,0,14.4-5.1,14.4-12.9c0-2.9-1.5-5.3-2.8-6.5c-1-0.8-3.5-3-10.7-3c-2.5,0-6.7,0.1-7.9,0.1&#10;&#9;c-0.4,0-3.9-0.1-6.5-0.1c-0.6,0-0.9,0.1-0.9,0.4c0,0.2,0.3,0.4,0.4,0.4c0.5,0,1.5,0.1,1.9,0.1c1.8,0.3,2.2,1.1,2.3,3&#10;&#9;c0.1,1.7,0.1,3.2,0.1,11.6V488" class="st0"/>
<path d="M418.4,486.4c-0.2,0-0.3-0.1-0.2-0.4l5.2-14.8c0.3-0.8,0.6-0.8,1,0l5.5,14.8c0.1,0.3,0.1,0.4-0.2,0.4H418.4&#10;&#9; M410.4,497.7c-1.1,2.7-2.2,4.6-4.7,4.9c-0.4,0.1-1.3,0.1-1.6,0.1c-0.3,0-0.5,0.2-0.5,0.4c0,0.3,0.4,0.4,1.1,0.4&#10;&#9;c2.3,0,5.1-0.2,5.6-0.2c0.6,0,3.7,0.2,5,0.2c0.5,0,0.8-0.1,0.8-0.4c0-0.3-0.1-0.4-0.6-0.4H415c-1,0-1.9-0.4-1.9-1.5&#10;&#9;c0-1,0.3-2.3,0.8-3.6l3.2-8.6c0.1-0.3,0.3-0.4,0.6-0.4h12.9c0.3,0,0.4,0.1,0.5,0.3l5,12.4c0.4,0.9-0.2,1.3-0.5,1.5&#10;&#9;c-0.3,0.1-0.4,0.1-0.4,0.4c0,0.3,0.9,0.3,2,0.4c3.9,0.1,8,0.1,8.8,0.1c0.6,0,1.3-0.1,1.3-0.4c0-0.3-0.4-0.4-0.7-0.4&#10;&#9;c-0.6,0-1.4-0.1-2.2-0.3c-1.2-0.4-2.7-1.1-4.8-5.9c-3.4-8.2-12.4-30.4-13.4-32.7c-0.6-1.2-0.8-2-1.3-2c-0.4,0-0.6,0.3-1.3,2.1&#10;&#9;L410.4,497.7" class="st0"/>
<path d="M459.6,478.5c0-8.4,0-9.9,0.1-11.6c0.1-1.9,0.4-2.7,2-3c0.6-0.1,1-0.1,1.4-0.1c0.2,0,0.4-0.3,0.4-0.4&#10;&#9;c0-0.3-0.3-0.4-0.9-0.4c-1.7,0-5.3,0.1-5.6,0.1c-0.3,0-3.8-0.1-5.6-0.1c-0.6,0-0.9,0.1-0.9,0.4c0,0.2,0.2,0.4,0.4,0.4&#10;&#9;c0.4,0,1.1,0.1,1.7,0.2c1.2,0.3,1.6,1.1,1.8,2.9c0.1,1.7,0.1,3.2,0.1,11.6v9.5c0,5.2-0.1,9.4-0.3,11.7c-0.2,1.6-0.4,2.6-1.5,2.9&#10;&#9;c-0.5,0.1-1.2,0.3-1.7,0.3c-0.3,0-0.4,0.3-0.4,0.4c0,0.3,0.3,0.4,0.9,0.4c1.7,0,5.2-0.2,5.5-0.2c0.3,0,3.9,0.2,7,0.2&#10;&#9;c0.6,0,0.9-0.2,0.9-0.4c0-0.2-0.1-0.4-0.4-0.4c-0.5,0-1.7-0.1-2.5-0.3c-1.6-0.3-1.8-1.3-2-2.9c-0.3-2.2-0.3-6.5-0.3-11.7V478.5" class="st0"/>
<path d="M479.6,470.9c1.7,1.9,8,8.5,14.5,15.3c5.9,6.2,13.9,14.1,14.5,14.6c3.1,2.9,3.7,3.3,4.2,3.3&#10;&#9;c0.4,0,0.4-0.3,0.4-3.9l0.1-31.6c0-3.2,0.1-4.3,2-4.7c0.6-0.1,1.1-0.1,1.3-0.1c0.4,0,0.6-0.3,0.6-0.5c0-0.3-0.4-0.4-1-0.4&#10;&#9;c-2.3,0-4.1,0.1-4.8,0.1c-0.6,0-3.3-0.1-5.8-0.1c-0.6,0-1.1,0.1-1.1,0.4c0,0.2,0.1,0.5,0.4,0.5c0.4,0,1.7,0.1,2.7,0.3&#10;&#9;c1.7,0.3,2,1.5,2.1,5l0.6,27c-1.7-1.8-7.7-8.2-13.2-13.9c-8.6-8.9-16.7-17.5-17.6-18.4c-0.6-0.6-1.5-1.6-2.2-1.6&#10;&#9;c-0.4,0-0.8,0.6-0.8,2.7v30.9c0,4.9-0.2,6.3-1.6,6.7c-0.8,0.3-1.8,0.3-2.3,0.3c-0.3,0-0.4,0.2-0.4,0.4c0,0.4,0.3,0.4,0.9,0.4&#10;&#9;c2.5,0,4.9-0.2,5.4-0.2c0.5,0,2.7,0.2,5.9,0.2c0.6,0,1-0.1,1-0.4c0-0.3-0.2-0.4-0.4-0.4c-0.5,0-1.8-0.1-2.8-0.3&#10;&#9;c-1.5-0.4-2-1.7-2.2-6.2L479.6,470.9" class="st0"/>
<path d="M543,465.4l7,0.1c5.3,0.1,6.5,1.3,6.7,3l0.1,0.6c0.1,0.8,0.2,1,0.4,1s0.5-0.3,0.5-0.7c0-0.6,0.2-4.5,0.2-6.2&#10;&#9;c0-0.3,0-0.6-0.3-0.6c-0.3,0-0.8,0.1-1.6,0.3c-0.9,0.1-2.2,0.3-4,0.3H531c-0.6,0-2.8-0.1-4.4-0.3c-1.5-0.2-2.1-0.6-2.5-0.6&#10;&#9;c-0.2,0-0.5,0.7-0.6,1c-0.1,0.4-1.2,5.3-1.2,5.8c0,0.3,0.3,0.4,0.4,0.4c0.3,0,0.4-0.1,0.6-0.5c0.2-0.4,0.3-0.8,0.9-1.7&#10;&#9;c0.8-1.3,2.2-1.6,5.6-1.7l8.1-0.1V488c0,5.2,0,9.4-0.3,11.7c-0.2,1.6-0.5,2.7-1.6,2.9c-0.5,0.1-1.1,0.3-1.6,0.3&#10;&#9;c-0.3,0-0.4,0.2-0.4,0.4c0,0.3,0.3,0.4,0.9,0.4c1.6,0,5.5-0.2,5.8-0.2c0.3,0,3.9,0.2,6.9,0.2c0.6,0,0.9-0.2,0.9-0.4&#10;&#9;c0-0.2-0.1-0.4-0.4-0.4c-0.5,0-1.8-0.1-2.5-0.3c-1.7-0.3-2-1.3-2.2-2.9c-0.3-2.2-0.3-6.5-0.3-11.7V465.4" class="st0"/>
<path d="M574.5,478.5c0-8.4,0-9.9,0.1-11.6c0.1-1.9,0.4-2.7,2-3c0.6-0.1,1-0.1,1.4-0.1c0.2,0,0.4-0.3,0.4-0.4&#10;&#9;c0-0.3-0.3-0.4-0.9-0.4c-1.7,0-5.3,0.1-5.6,0.1c-0.3,0-3.8-0.1-5.6-0.1c-0.6,0-0.9,0.1-0.9,0.4c0,0.2,0.2,0.4,0.4,0.4&#10;&#9;c0.4,0,1.1,0.1,1.7,0.2c1.2,0.3,1.6,1.1,1.8,2.9c0.1,1.7,0.1,3.2,0.1,11.6v9.5c0,5.2-0.1,9.4-0.3,11.7c-0.2,1.6-0.4,2.6-1.5,2.9&#10;&#9;c-0.5,0.1-1.2,0.3-1.7,0.3c-0.3,0-0.4,0.3-0.4,0.4c0,0.3,0.3,0.4,0.9,0.4c1.7,0,5.2-0.2,5.5-0.2c0.3,0,3.9,0.2,7,0.2&#10;&#9;c0.6,0,0.9-0.2,0.9-0.4c0-0.2-0.1-0.4-0.4-0.4c-0.5,0-1.7-0.1-2.5-0.3c-1.6-0.3-1.8-1.3-2-2.9c-0.3-2.2-0.3-6.5-0.3-11.7V478.5" class="st0"/>
<path d="M594.5,470.9c1.7,1.9,8,8.5,14.5,15.3c5.9,6.2,13.9,14.1,14.5,14.6c3.1,2.9,3.7,3.3,4.2,3.3&#10;&#9;c0.4,0,0.4-0.3,0.4-3.9l0.1-31.6c0-3.2,0.1-4.3,2-4.7c0.6-0.1,1.1-0.1,1.3-0.1c0.4,0,0.6-0.3,0.6-0.5c0-0.3-0.4-0.4-1-0.4&#10;&#9;c-2.3,0-4.1,0.1-4.8,0.1s-3.3-0.1-5.8-0.1c-0.6,0-1.1,0.1-1.1,0.4c0,0.2,0.1,0.5,0.4,0.5c0.4,0,1.7,0.1,2.7,0.3c1.7,0.3,2,1.5,2.1,5&#10;&#9;l0.6,27c-1.7-1.8-7.7-8.2-13.2-13.9c-8.6-8.9-16.7-17.5-17.6-18.4c-0.6-0.6-1.5-1.6-2.2-1.6c-0.4,0-0.8,0.6-0.8,2.7v30.9&#10;&#9;c0,4.9-0.2,6.3-1.6,6.7c-0.8,0.3-1.8,0.3-2.3,0.3c-0.3,0-0.4,0.2-0.4,0.4c0,0.4,0.3,0.4,0.9,0.4c2.5,0,4.9-0.2,5.4-0.2&#10;&#9;c0.5,0,2.7,0.2,5.9,0.2c0.6,0,1-0.1,1-0.4c0-0.3-0.2-0.4-0.4-0.4c-0.5,0-1.8-0.1-2.8-0.3c-1.5-0.4-2-1.7-2.2-6.2L594.5,470.9" class="st0"/>
<path d="M671,499.2c0,1-0.4,1.3-1.1,1.6c-1.5,0.8-4.1,1-6,1c-5.1,0-9.8-1.5-14.3-5.6c-2-1.8-5.9-7.3-5.9-14.9&#10;&#9;c0-6.3,2.3-11.1,5.5-13.6c4.2-3.2,8.3-3.5,11.7-3.5c7.2,0,11.5,2.2,12.9,4.2c0.9,1.3,1.2,2.9,1.3,3.6c0,0.5,0.1,0.8,0.4,0.8&#10;&#9;c0.4,0,0.6-0.3,0.6-1.1c0-5.4,0.3-6.8,0.3-7.6c0-0.3-0.1-0.5-0.7-0.5c-1.4,0-3.4-0.3-4.5-0.6c-1.1-0.3-5-0.9-8.6-0.9&#10;&#9;c-4.2,0-9.8,0.4-14.8,3.4c-4.9,3-9.3,9.1-9.3,17.7c0,6.7,3.2,12.5,6.7,15.3c6.2,5.3,14.1,5.8,18.4,5.8c3.2,0,8.3-0.6,11.9-2.4&#10;&#9;c0.7-0.4,0.8-0.4,0.8-2.9v-6c0-2.3,0-3.9,0.1-5.6c0.1-1.9,0.6-2.7,2.1-3c0.6-0.1,1-0.1,1.4-0.1c0.2,0,0.4-0.3,0.4-0.4&#10;&#9;c0-0.4-0.3-0.4-0.9-0.4c-1.7,0-5.2,0.1-5.5,0.1c-0.3,0-4.1-0.1-6.6-0.1c-0.6,0-0.9,0.1-0.9,0.4c0,0.2,0.3,0.4,0.4,0.4&#10;&#9;c0.5,0,1.5,0.1,1.9,0.1c2.3,0.4,2.4,1.1,2.4,5.5V499.2" class="st0"/>
<polygon points="542.3,536.7 542.3,544.2 212.6,561.9 542.3,579.7 542.3,587.2 592.7,561.9"/>
</svg>